<svg width="512" height="512" viewBox="0 0 512 512" fill="none" xmlns="http://www.w3.org/2000/svg">
<rect x="40" y="40" width="433" height="433" rx="85" fill="#1E1E1E" stroke="#FF9D00" stroke-width="8"/>
<rect x="40" y="40" width="433" height="433" rx="85" stroke="#1E1E1E" stroke-width="8" stroke-dasharray="64 64"/>
<path d="M147.965 390.64C146.621 391.792 145.053 392.464 143.261 392.656C141.533 392.848 139.837 392.592 138.173 391.888C136.509 391.12 135.133 389.968 134.045 388.432C132.957 387.024 132.253 385.424 131.933 383.632C131.613 381.776 131.581 379.376 131.837 376.432C132.029 373.936 132.829 371.44 134.237 368.944C135.645 366.384 137.341 364.112 139.325 362.128C141.373 360.144 143.389 358.768 145.373 358C146.333 357.36 147.133 357.072 147.773 357.136C148.477 357.136 149.533 357.2 150.941 357.328C152.413 357.52 153.501 357.808 154.205 358.192C154.973 358.576 155.581 359.088 156.029 359.728C156.989 360.688 157.629 361.648 157.949 362.608C158.269 363.504 158.429 364.4 158.429 365.296C158.173 366.704 157.213 368.432 155.549 370.48C153.949 372.464 151.837 374.096 149.213 375.376C147.805 375.824 146.269 376.016 144.605 375.952C142.941 375.888 141.565 375.472 140.477 374.704C139.261 374.192 138.461 374.288 138.077 374.992C137.693 375.632 137.341 377.232 137.021 379.792C136.765 382.224 136.957 384.016 137.597 385.168C138.237 386.256 139.101 386.896 140.189 387.088C141.469 387.344 142.461 387.536 143.165 387.664C143.933 387.728 144.861 387.44 145.949 386.8C146.973 386.16 147.613 385.808 147.869 385.744C148.125 385.616 148.317 385.488 148.445 385.36C148.637 385.168 149.053 384.752 149.693 384.112C150.141 383.664 150.493 383.344 150.749 383.152C151.005 382.896 151.293 382.768 151.613 382.768C151.933 382.768 152.221 382.928 152.477 383.248C152.733 383.504 152.989 383.696 153.245 383.824C153.885 383.824 154.013 384.208 153.629 384.976C153.309 385.744 152.637 386.672 151.613 387.76C150.589 388.784 149.373 389.744 147.965 390.64ZM147.869 370.288C148.573 369.968 149.309 369.52 150.077 368.944C150.845 368.304 151.485 367.632 151.997 366.928C152.573 366.16 152.861 365.52 152.861 365.008C152.861 364.112 152.445 363.376 151.613 362.8C150.781 362.16 149.533 362.064 147.869 362.512C147.165 362.704 146.365 363.184 145.469 363.952C144.573 364.656 143.709 365.456 142.877 366.352C142.109 367.248 141.469 368.048 140.957 368.752C140.509 369.456 140.349 369.872 140.477 370C140.669 370.32 141.213 370.576 142.109 370.768C143.005 370.896 143.997 370.928 145.085 370.864C146.237 370.8 147.165 370.608 147.869 370.288ZM163.248 398.608C162.48 398.608 161.84 398.192 161.328 397.36C160.944 396.976 160.688 396.432 160.56 395.728C160.496 395.088 160.72 393.904 161.232 392.176C161.744 390.384 162.608 387.664 163.824 384.016C164.464 381.584 164.976 379.824 165.359 378.736C165.744 377.584 165.936 376.752 165.936 376.24C165.936 375.536 166 374.96 166.128 374.512C166.32 374 166.416 373.52 166.416 373.072C166.8 373.072 167.184 372.72 167.568 372.016C167.952 371.312 168.272 370.352 168.528 369.136C168.784 368.048 169.008 367.184 169.2 366.544C169.456 365.84 169.584 365.36 169.584 365.104C169.904 364.592 170.224 363.792 170.544 362.704C170.928 361.616 171.504 360.304 172.272 358.768C172.784 356.848 173.36 354.864 174 352.816C174.64 350.704 175.28 348.752 175.92 346.96C176.624 345.104 177.2 343.664 177.648 342.64C178.352 340.656 178.896 339.28 179.28 338.512C179.664 337.68 179.664 337.136 179.28 336.88C178.832 336.56 178.736 336.016 178.992 335.248C179.248 334.48 179.952 333.616 181.104 332.656C181.808 331.824 182.416 331.248 182.928 330.928C183.44 330.544 184.08 330.352 184.848 330.352C185.68 330.352 186.864 330.416 188.4 330.544C189.552 330.608 190.768 330.64 192.048 330.64C193.392 330.64 194.224 330.64 194.544 330.64C195.12 330.896 195.824 331.184 196.656 331.504C197.488 331.76 198.224 332.016 198.864 332.272C199.568 332.528 199.92 332.752 199.92 332.944C199.92 333.328 200.048 333.584 200.304 333.712C200.624 333.776 200.944 333.84 201.264 333.904C201.712 333.904 202.32 334.256 203.088 334.96C203.856 335.6 204.656 336.432 205.488 337.456C206.32 338.416 206.96 339.44 207.408 340.528C207.92 341.616 208.304 342.64 208.56 343.6C208.88 344.56 208.88 345.936 208.56 347.728C208.496 348.688 208.336 349.648 208.08 350.608C207.888 351.568 207.664 352.208 207.408 352.528C207.024 352.784 206.672 353.104 206.352 353.488C206.032 353.872 205.872 354.224 205.872 354.544C205.872 354.8 205.648 355.312 205.2 356.08C204.752 356.784 204.176 357.616 203.472 358.576C202.768 359.536 202 360.496 201.167 361.456C200.336 362.416 199.536 363.248 198.768 363.952C197.936 364.976 196.944 365.936 195.792 366.832C194.704 367.728 193.712 368.464 192.816 369.04C191.152 369.808 189.296 370.576 187.248 371.344C185.264 372.112 183.344 372.752 181.488 373.264C179.696 373.776 178.192 374 176.976 373.936C175.12 374.192 173.904 374.448 173.328 374.704C172.816 374.896 172.432 375.44 172.176 376.336C171.856 377.168 171.536 378.032 171.216 378.928C170.96 379.76 170.832 380.336 170.832 380.656C170.704 380.912 170.384 381.712 169.872 383.056C169.424 384.336 168.912 385.84 168.336 387.568C167.824 389.296 167.312 390.992 166.799 392.656C166.288 394.32 165.904 395.696 165.648 396.784C165.392 397.68 165.072 398.192 164.688 398.32C164.304 398.512 163.824 398.608 163.248 398.608ZM175.152 368.848C175.408 369.104 176.4 369.136 178.128 368.944C179.856 368.752 181.712 368.272 183.696 367.504C184.976 367.056 186.256 366.512 187.536 365.872C188.88 365.232 190.16 364.528 191.376 363.76C192.016 363.312 192.976 362.512 194.256 361.36C195.536 360.208 196.816 358.832 198.096 357.232C198.288 356.912 198.608 356.304 199.056 355.408C199.568 354.448 200.016 353.552 200.4 352.72C200.976 351.824 201.552 350.512 202.128 348.784C202.704 346.992 202.832 345.52 202.512 344.368C202.192 342.704 201.36 341.168 200.016 339.76C198.672 338.288 197.072 337.296 195.216 336.784C193.808 336.528 192.624 336.4 191.664 336.4C190.768 336.4 189.776 336.496 188.688 336.688C187.664 337.008 186.896 337.456 186.384 338.032C185.936 338.608 185.328 339.824 184.56 341.68C184.112 342.576 183.472 343.952 182.64 345.808C181.808 347.6 181.104 349.296 180.528 350.896C179.376 355.12 178.224 358.608 177.072 361.36C175.984 364.048 175.312 365.744 175.056 366.448C175.12 367.152 175.088 367.664 174.96 367.984C174.832 368.24 174.896 368.528 175.152 368.848ZM208.643 390.64C208.067 390.192 207.651 389.744 207.395 389.296C207.203 388.848 207.203 387.984 207.395 386.704C207.587 384.912 207.843 383.344 208.163 382C208.483 380.592 208.867 378.992 209.315 377.2C209.443 376.432 209.795 375.12 210.371 373.264C211.011 371.408 211.779 369.392 212.675 367.216C213.571 365.04 214.467 362.992 215.363 361.072C216.259 359.088 217.027 357.616 217.667 356.656C218.179 356.272 218.787 356.112 219.491 356.176C220.259 356.24 220.899 356.528 221.411 357.04C222.115 357.616 222.211 358.64 221.699 360.112C221.251 361.52 220.291 363.76 218.819 366.832C218.051 368.56 217.475 369.872 217.091 370.768C216.707 371.6 216.547 372.112 216.611 372.304C216.675 372.432 216.963 372.336 217.475 372.016C217.859 371.312 218.563 370.512 219.587 369.616C220.611 368.656 221.699 367.728 222.851 366.832C224.003 365.936 225.091 365.136 226.115 364.432C227.139 363.728 227.843 363.28 228.227 363.088C228.739 362.768 229.315 362.512 229.955 362.32C230.659 362.064 231.139 361.872 231.395 361.744C232.867 361.04 234.371 360.784 235.907 360.976C237.443 361.168 238.403 361.744 238.787 362.704C238.851 363.216 239.043 363.6 239.363 363.856C239.747 364.112 239.939 364.24 239.939 364.24C240.195 364.24 240.323 364.336 240.323 364.528C240.387 364.72 240.419 364.816 240.419 364.816C240.419 365.264 240.067 365.552 239.363 365.68C238.723 365.744 237.891 365.808 236.867 365.872C236.035 365.936 235.299 366.096 234.659 366.352C234.019 366.608 233.251 366.928 232.355 367.312C229.923 368.72 227.587 370.096 225.347 371.44C223.171 372.784 221.059 374.576 219.011 376.816C218.563 377.328 218.115 377.936 217.667 378.64C217.219 379.344 216.739 380.112 216.227 380.944C215.907 381.264 215.587 381.968 215.267 383.056C214.947 384.144 214.659 385.2 214.403 386.224C214.211 387.184 214.115 387.76 214.115 387.952C214.115 387.952 214.019 388.272 213.827 388.912C213.635 389.488 213.315 390.064 212.867 390.64C212.099 391.664 211.459 392.176 210.947 392.176C210.435 392.176 209.667 391.664 208.643 390.64ZM246.213 391.024C245.253 390.896 244.421 390.224 243.717 389.008C243.077 387.728 242.693 386.576 242.565 385.552C242.629 385.04 242.693 384.304 242.757 383.344C242.885 382.384 243.013 381.392 243.141 380.368C243.397 379.152 243.749 377.68 244.197 375.952C244.645 374.16 245.093 372.368 245.541 370.576C246.053 368.784 246.501 367.248 246.885 365.968C247.269 364.688 247.525 363.92 247.653 363.664C247.973 363.152 248.485 363.024 249.189 363.28C249.893 363.536 250.469 363.92 250.917 364.432C251.301 364.944 251.525 365.552 251.589 366.256C251.717 366.96 251.621 367.984 251.301 369.328C251.045 370.672 250.533 372.656 249.765 375.28C249.061 377.84 248.517 379.92 248.133 381.52C247.813 383.056 247.685 384.688 247.749 386.416C247.493 388.592 247.301 389.936 247.173 390.448C247.045 390.896 246.725 391.088 246.213 391.024ZM257.253 352.72C256.997 352.912 256.741 353.008 256.484 353.008C256.293 352.944 255.941 352.752 255.429 352.432C254.981 352.368 254.405 352.08 253.701 351.568C253.061 350.992 252.485 350.416 251.973 349.84C251.525 349.2 251.301 348.816 251.301 348.688C251.237 348.048 251.269 347.248 251.397 346.288C251.589 345.264 251.941 344.368 252.453 343.6C252.965 342.768 253.701 342.32 254.661 342.256C254.917 342.256 255.141 342.288 255.333 342.352C255.525 342.416 256.101 342.64 257.061 343.024C257.573 343.984 258.085 345.072 258.597 346.288C259.109 347.44 259.333 348.592 259.269 349.744C259.205 350.832 258.533 351.824 257.253 352.72ZM289.079 392.848C288.439 392.848 287.767 392.496 287.063 391.792C286.423 391.088 285.847 390.224 285.335 389.2C284.887 388.112 284.663 387.088 284.663 386.128C284.663 385.168 284.887 383.376 285.335 380.752C285.847 378.128 286.455 375.472 287.159 372.784C287.671 371.12 287.831 370.16 287.639 369.904C287.447 369.648 286.583 370 285.047 370.96C284.151 371.408 283.351 371.888 282.647 372.4C281.943 372.848 281.335 373.36 280.823 373.936C280.503 374.192 280.023 374.608 279.383 375.184C278.743 375.76 278.071 376.304 277.367 376.816C276.535 377.456 275.479 378.352 274.199 379.504C272.919 380.656 271.639 381.808 270.359 382.96C269.143 384.112 268.215 385.008 267.575 385.648C267.447 385.904 267.255 386.128 266.999 386.32C266.743 386.512 266.455 386.64 266.135 386.704C265.815 386.704 265.463 386.64 265.079 386.512C264.375 386.32 263.703 385.904 263.063 385.264C262.487 384.624 262.199 383.888 262.199 383.056C262.199 382.416 262.455 381.328 262.967 379.792C263.479 378.192 264.151 376.272 264.983 374.032C265.879 371.792 266.903 369.424 268.055 366.928C268.247 366.608 268.407 366.224 268.535 365.776C268.663 365.264 268.759 364.72 268.823 364.144C268.951 363.568 269.015 363.024 269.015 362.512C269.015 362.192 269.047 361.872 269.111 361.552C269.239 361.168 269.367 360.816 269.495 360.496C269.687 360.112 269.847 359.856 269.975 359.728C270.231 359.216 270.679 359.088 271.319 359.344C271.959 359.536 272.503 359.984 272.951 360.688C273.911 361.584 274.391 362.704 274.391 364.048C274.455 365.392 274.135 367.056 273.431 369.04C273.175 369.488 272.951 369.936 272.759 370.384C272.631 370.768 272.503 371.12 272.375 371.44C272.247 371.696 272.151 371.92 272.087 372.112C272.023 372.24 271.991 372.304 271.991 372.304C272.247 372.304 272.823 372.016 273.719 371.44C274.615 370.864 275.671 370.224 276.887 369.52C277.847 368.816 278.679 368.176 279.383 367.6C280.151 366.96 280.791 366.48 281.303 366.16C281.815 365.776 282.135 365.584 282.263 365.584C282.519 365.584 282.839 365.488 283.223 365.296C283.607 365.104 283.927 364.88 284.183 364.624C284.439 364.368 284.631 364.24 284.759 364.24C284.951 364.176 285.047 364.144 285.047 364.144C285.047 364.144 285.175 364.144 285.431 364.144C285.687 364.08 285.943 363.92 286.199 363.664C286.711 363.28 287.383 363.184 288.215 363.376C289.047 363.504 289.815 363.824 290.519 364.336C291.223 364.848 291.575 365.424 291.575 366.064C291.575 366.32 291.639 366.544 291.767 366.736C291.959 366.864 292.055 366.928 292.055 366.928C292.567 366.928 292.887 367.728 293.015 369.328C293.207 370.928 293.047 372.464 292.535 373.936C292.535 374.896 292.343 376.048 291.959 377.392C291.639 378.736 291.351 380.016 291.095 381.232C290.583 382.832 290.231 384.24 290.039 385.456C289.847 386.672 289.815 387.696 289.943 388.528C290.071 389.36 290.295 390.032 290.615 390.544C290.871 390.992 290.871 391.504 290.615 392.08C290.359 392.592 289.847 392.848 289.079 392.848ZM311.178 398.8C309.066 398.48 307.626 397.68 306.858 396.4C306.154 395.184 305.994 393.296 306.378 390.736C306.762 389.52 306.986 388.432 307.049 387.472C307.178 386.448 307.466 385.808 307.914 385.552C307.914 385.552 307.946 385.456 308.01 385.264C308.138 385.072 308.106 384.88 307.914 384.688C307.914 383.856 308.202 382.704 308.778 381.232C308.906 380.848 309.066 380.4 309.258 379.888C309.514 379.312 309.642 379.024 309.642 379.024C309.322 378.512 309.322 378.096 309.642 377.776C309.962 377.456 310.282 377.168 310.602 376.912C310.986 376.592 311.018 376.24 310.698 375.856C310.57 375.6 310.73 375.024 311.178 374.128C311.626 373.168 312.138 372.176 312.714 371.152C313.29 370.128 313.674 369.328 313.866 368.752C313.866 368.624 314.026 368.176 314.346 367.408C314.666 366.64 315.05 365.744 315.498 364.72C315.946 363.696 316.362 362.768 316.746 361.936C317.194 361.104 317.482 360.56 317.609 360.304C318.25 359.984 317.994 359.76 316.842 359.632C315.69 359.504 314.474 359.472 313.194 359.536C311.21 359.472 309.61 359.376 308.394 359.248C307.242 359.12 306.282 358.832 305.514 358.384C304.746 357.488 304.458 356.848 304.65 356.464C304.906 356.016 305.674 355.76 306.954 355.696C307.786 355.632 308.426 355.6 308.874 355.6C309.386 355.6 310.026 355.568 310.794 355.504C311.626 355.376 312.906 355.216 314.634 355.024L319.53 354.64L319.818 353.008C320.33 352.176 320.746 351.44 321.066 350.8C321.45 350.096 321.77 349.392 322.026 348.688C322.282 347.984 322.474 347.248 322.602 346.48C322.602 346.48 322.89 345.968 323.466 344.944C324.042 343.856 324.394 342.736 324.522 341.584C325.29 340.304 325.962 339.152 326.538 338.128C327.114 337.04 327.466 336.368 327.594 336.112C328.298 335.536 328.778 335.248 329.034 335.248C329.354 335.248 329.994 335.568 330.954 336.208C331.53 336.528 332.042 336.912 332.49 337.36C332.938 337.808 333.226 338.288 333.354 338.8C333.482 339.248 333.29 339.696 332.778 340.144C332.65 340.4 332.458 340.88 332.202 341.584C331.946 342.224 331.754 342.768 331.626 343.216C331.242 343.664 330.762 344.4 330.186 345.424C329.674 346.384 329.322 347.376 329.13 348.4C328.618 349.488 328.138 350.48 327.69 351.376C327.242 352.208 326.89 352.624 326.634 352.624C326.762 353.264 327.146 353.584 327.786 353.584C328.426 353.52 329.482 353.456 330.954 353.392C332.17 353.264 333.002 353.136 333.45 353.008C333.962 352.816 334.538 352.88 335.178 353.2C335.498 353.648 335.754 354.16 335.946 354.736C336.138 355.312 336.17 355.856 336.042 356.368C335.978 356.816 335.722 357.136 335.274 357.328C334.954 357.328 334.282 357.52 333.258 357.904C332.298 358.224 331.082 358.416 329.61 358.48L324.522 358.96L322.89 362.224C322.442 363.056 322.058 363.824 321.738 364.528C321.418 365.168 321.194 365.552 321.066 365.68C321.066 366.064 320.842 366.64 320.394 367.408C320.01 368.176 319.594 369.008 319.146 369.904C318.762 370.992 318.314 371.984 317.802 372.88C317.354 373.776 317.13 374.224 317.13 374.224C316.874 374.224 316.746 374.416 316.746 374.8C317.066 375.568 316.97 376.144 316.458 376.528C316.138 376.72 315.85 377.008 315.594 377.392C315.402 377.712 315.306 377.872 315.306 377.872C315.562 378.128 315.594 378.448 315.402 378.832C315.274 379.216 315.082 379.632 314.826 380.08C314.826 380.592 314.666 381.328 314.346 382.288C314.09 383.248 313.802 384.144 313.482 384.976C313.546 386.128 313.61 386.864 313.674 387.184C313.738 387.504 313.898 387.632 314.154 387.568C314.474 387.632 314.762 387.632 315.018 387.568C315.274 387.504 315.53 387.472 315.786 387.472C316.682 387.088 316.202 389.328 314.346 394.192C313.322 395.792 312.618 396.944 312.234 397.648C311.85 398.416 311.498 398.8 311.178 398.8ZM341.039 391.696C338.543 390.672 336.911 389.264 336.143 387.472C335.439 385.616 335.311 382.768 335.759 378.928C335.887 376.944 335.951 375.632 335.951 374.992C335.951 374.352 335.599 373.712 334.895 373.072C334.703 372.816 334.351 372.464 333.839 372.016C333.391 371.568 333.199 371.184 333.263 370.864C333.199 370.416 333.231 369.936 333.359 369.424C333.487 368.848 333.679 368.56 333.935 368.56C334.191 368.56 334.447 368.496 334.703 368.368C335.023 368.24 335.311 368.24 335.567 368.368C335.823 368.368 336.111 368.4 336.431 368.464C336.751 368.528 336.911 368.688 336.911 368.944C337.167 369.392 337.583 369.456 338.159 369.136C338.735 368.752 339.343 367.92 339.983 366.64C340.623 365.616 341.455 364.592 342.479 363.568C343.567 362.544 344.623 361.616 345.647 360.784C346.735 359.888 347.631 359.248 348.335 358.864C348.655 358.736 349.135 358.576 349.775 358.384C350.415 358.192 351.087 358.032 351.791 357.904C352.559 357.776 353.199 357.744 353.711 357.808C354.863 357.872 355.823 358.192 356.591 358.768C357.423 359.344 358.191 360.016 358.895 360.784C359.727 361.36 360.239 362.128 360.431 363.088C360.687 364.048 360.751 365.072 360.623 366.16C360.495 367.248 360.207 368.24 359.759 369.136C359.567 369.776 359.023 370.544 358.127 371.44C357.231 372.336 356.207 373.2 355.055 374.032C353.903 374.864 352.847 375.472 351.887 375.856C351.055 376.048 349.967 376.208 348.623 376.336C347.343 376.464 346.127 376.528 344.975 376.528C343.887 376.464 343.151 376.336 342.767 376.144C342.319 375.888 341.967 376.24 341.711 377.2C341.455 378.16 341.263 379.536 341.135 381.328C341.007 382.736 341.007 383.76 341.135 384.4C341.263 385.04 341.391 385.488 341.519 385.744C341.967 386.192 342.575 386.768 343.343 387.472C344.175 388.112 345.327 388.208 346.799 387.76C348.015 387.44 349.199 386.608 350.351 385.264C351.567 383.92 352.687 382.832 353.711 382C353.967 381.552 354.383 381.296 354.959 381.232C355.599 381.104 356.271 381.136 356.975 381.328C357.679 381.776 357.967 382.32 357.839 382.96C357.775 383.536 357.455 384.432 356.879 385.648C356.687 386.096 356.239 386.672 355.535 387.376C354.895 388.016 354.159 388.688 353.327 389.392C352.559 390.032 351.855 390.544 351.215 390.928C349.295 391.952 347.503 392.496 345.839 392.56C344.175 392.56 342.575 392.272 341.039 391.696ZM346.703 372.208C348.111 371.888 349.231 371.664 350.063 371.536C350.895 371.408 351.695 371.056 352.463 370.48C353.231 369.84 354.191 368.656 355.343 366.928C355.599 366.224 355.663 365.52 355.535 364.816C355.471 364.112 355.311 363.632 355.055 363.376C354.479 362.736 353.775 362.544 352.943 362.8C352.175 362.992 351.439 363.344 350.735 363.856C350.287 364.048 349.615 364.528 348.719 365.296C347.887 366 347.055 366.832 346.223 367.792C345.391 368.688 344.719 369.52 344.207 370.288C343.695 371.056 343.567 371.504 343.823 371.632C343.695 371.888 344.047 372.048 344.879 372.112C345.775 372.176 346.383 372.208 346.703 372.208ZM367.362 390.64C366.786 390.192 366.37 389.744 366.114 389.296C365.922 388.848 365.922 387.984 366.114 386.704C366.306 384.912 366.562 383.344 366.882 382C367.202 380.592 367.586 378.992 368.034 377.2C368.162 376.432 368.514 375.12 369.09 373.264C369.73 371.408 370.498 369.392 371.394 367.216C372.29 365.04 373.186 362.992 374.082 361.072C374.978 359.088 375.746 357.616 376.386 356.656C376.898 356.272 377.506 356.112 378.21 356.176C378.978 356.24 379.618 356.528 380.13 357.04C380.834 357.616 380.93 358.64 380.418 360.112C379.97 361.52 379.01 363.76 377.538 366.832C376.77 368.56 376.194 369.872 375.81 370.768C375.426 371.6 375.266 372.112 375.33 372.304C375.394 372.432 375.682 372.336 376.194 372.016C376.578 371.312 377.282 370.512 378.306 369.616C379.33 368.656 380.418 367.728 381.57 366.832C382.722 365.936 383.81 365.136 384.834 364.432C385.858 363.728 386.562 363.28 386.946 363.088C387.458 362.768 388.034 362.512 388.674 362.32C389.378 362.064 389.858 361.872 390.114 361.744C391.586 361.04 393.09 360.784 394.626 360.976C396.162 361.168 397.122 361.744 397.506 362.704C397.57 363.216 397.762 363.6 398.082 363.856C398.466 364.112 398.658 364.24 398.658 364.24C398.914 364.24 399.042 364.336 399.042 364.528C399.106 364.72 399.138 364.816 399.138 364.816C399.138 365.264 398.786 365.552 398.082 365.68C397.442 365.744 396.61 365.808 395.586 365.872C394.754 365.936 394.018 366.096 393.378 366.352C392.738 366.608 391.97 366.928 391.074 367.312C388.642 368.72 386.306 370.096 384.066 371.44C381.89 372.784 379.778 374.576 377.73 376.816C377.282 377.328 376.834 377.936 376.386 378.64C375.938 379.344 375.458 380.112 374.946 380.944C374.626 381.264 374.306 381.968 373.986 383.056C373.666 384.144 373.378 385.2 373.122 386.224C372.93 387.184 372.834 387.76 372.834 387.952C372.834 387.952 372.738 388.272 372.546 388.912C372.354 389.488 372.034 390.064 371.586 390.64C370.818 391.664 370.178 392.176 369.666 392.176C369.154 392.176 368.386 391.664 367.362 390.64Z" fill="white"/>
<path d="M390 127.888C364.774 151.699 351.206 168.397 333.042 197.599C331.42 200.207 330.381 203.143 329.975 206.186L321.031 273.206M390 127.888L372.246 220.673L321.031 273.206M390 127.888L384.537 121.065M321.031 273.206L306.691 278.664M306.691 278.664L313.11 208.108C313.38 205.151 314.302 202.285 315.829 199.738C337.53 163.542 352.75 145.339 384.537 121.065M306.691 278.664C303.257 280.578 300.044 279.888 289.619 275.935M384.537 121.065L370.197 115.607M370.197 115.607L239.77 89.6822M370.197 115.607C345.925 130.833 329.08 149.231 313.323 168.822M289.619 275.935L293.033 209.075C293.033 209.075 294.033 196.122 299.392 186.561C304.05 180.577 308.639 174.647 313.323 168.822M289.619 275.935L273.23 267.065M239.77 89.6822C214.326 97.8821 201.716 106.455 180.361 124.477M239.77 89.6822L232.941 89C203.433 99.0667 188.136 109.348 163.289 136.757C160.078 141.878 160.054 145.804 160.558 153.131L166.02 204.981L170.801 208.393M180.361 124.477C180.361 124.477 167.809 134.71 166.02 142.215C162.606 156.542 170.801 208.393 170.801 208.393M180.361 124.477L188.759 127.278M313.323 168.822L281.569 158.232M170.801 208.393L125.662 234.162C124.408 234.878 124.303 236.647 125.463 237.507L218.819 306.644C219.901 307.446 221.385 307.428 222.447 306.601L273.23 267.065M170.801 208.393L174.898 206.346L171.717 174.963M273.23 267.065V247.963M234.99 97.1869L332.429 117.857C333.286 118.039 333.512 119.156 332.795 119.659C323.627 126.084 317.887 130.494 307.857 140.168M234.99 97.1869C219.616 104.646 211.174 110.255 200.375 119.9M234.99 97.1869V108.402M307.857 140.168C303.504 144.343 298.879 149.056 293.463 154.727C293.2 155.002 292.803 155.105 292.439 154.991L286.664 153.175M307.857 140.168L303.489 138.941M273.23 223.402V198.775C273.23 197.574 272.514 196.488 271.409 196.016L174.111 154.446C172.01 153.549 169.717 155.235 169.948 157.508L171.717 174.963M273.23 223.402L212.455 194.402M273.23 223.402V247.963M171.717 174.963L212.455 194.402M212.455 194.402C183.231 211.533 166.323 220.91 133.243 236.364L212.455 292.991C234.861 272.163 247.978 261.839 273.23 247.963M281.569 158.232C278.548 161.338 275.339 164.827 271.864 168.822L180.361 133.346C183.299 131.159 186.078 129.141 188.759 127.278M281.569 158.232C283.326 156.425 285.02 154.747 286.664 153.175M188.759 127.278C192.782 124.483 196.584 122.038 200.375 119.9M200.375 119.9C210.625 114.118 220.789 110.574 234.99 108.402M286.664 153.175C292.688 147.415 298.053 143.07 303.489 138.941M234.99 108.402C237.373 108.038 239.871 107.712 242.501 107.421L318.299 127.888C312.988 131.932 308.212 135.355 303.489 138.941" stroke="#FF9D00" stroke-width="2" stroke-linecap="round" stroke-linejoin="round"/>
</svg>
